<svg enable-background="new 0 0 288.856 288.856" height="289" viewBox="0 0 288.856 288.856" width="289" xmlns="http://www.w3.org/2000/svg"><path d="m287.856 144.428c0 12.33-1.555 24.31-4.484 35.724-3.013 11.751-7.485 22.924-13.198 33.302-5.532 10.052-12.234 19.357-19.935 27.758-1.109 1.229-2.242 2.435-3.411 3.616-1.109 1.133-2.242 2.254-3.387 3.339-3.315 3.17-6.774 6.183-10.377 9.003-8.196 6.484-17.127 12.065-26.649 16.633-.109.048-.217.108-.325.157-4.568 2.182-9.281 4.122-14.102 5.822-9.232 3.242-18.887 5.568-28.866 6.858-6.123.808-12.354 1.217-18.694 1.217-2.784 0-5.556-.084-8.304-.241-.639-.036-1.278-.072-1.916-.133-.181 0-.35-.012-.53-.036-.361-.024-.723-.048-1.085-.084-5.327-.422-10.582-1.157-15.729-2.169-4.978-.952-9.871-2.182-14.656-3.664-1.844-.566-3.676-1.169-5.496-1.808-12.957-4.568-25.058-10.944-35.989-18.826-3.061-2.206-6.026-4.532-8.895-6.954h-.012c-1.579-1.338-3.11-2.688-4.616-4.098-7.629-7.015-14.487-14.861-20.417-23.382-2.218-3.146-4.291-6.388-6.231-9.715v-.012c-3.218-5.484-6.075-11.197-8.545-17.127-7.09-16.985-11.007-35.63-11.007-55.18 0-9.618.94-19.007 2.76-28.083 13.053-65.772 71.075-115.345 140.668-115.345 79.211 0 143.428 64.217 143.428 143.428z" fill="#759ef2"/><path d="m144.429 288.856c-2.729 0-5.542-.082-8.361-.242-.651-.037-1.303-.074-1.954-.136-.133.004-.343-.01-.569-.041-.306-.018-.678-.043-1.051-.081-5.241-.415-10.571-1.15-15.823-2.184-4.938-.944-9.905-2.186-14.759-3.69-1.846-.567-3.707-1.179-5.531-1.819-12.922-4.557-25.115-10.935-36.243-18.959-2.973-2.142-5.957-4.473-8.871-6.931-.034-.022-.066-.046-.098-.072-1.702-1.442-3.224-2.793-4.653-4.131-7.685-7.066-14.603-14.989-20.555-23.541-2.185-3.099-4.297-6.392-6.274-9.782-.018-.031-.034-.062-.048-.095-3.23-5.514-6.109-11.289-8.557-17.164-7.354-17.616-11.082-36.31-11.082-55.56 0-9.565.936-19.08 2.779-28.28 13.357-67.3 72.93-116.148 141.65-116.148 79.638 0 144.428 64.79 144.428 144.428 0 12.194-1.519 24.297-4.515 35.973-2.992 11.668-7.464 22.951-13.291 33.536-5.532 10.052-12.286 19.457-20.074 27.951-1.146 1.271-2.305 2.499-3.437 3.644-1.166 1.191-2.315 2.323-3.411 3.361-3.388 3.24-6.904 6.292-10.448 9.065-8.254 6.53-17.283 12.166-26.832 16.747l-.146.07c-.069.035-.14.069-.209.1-4.521 2.159-9.298 4.132-14.174 5.85-9.417 3.307-19.197 5.63-29.07 6.906-6.164.813-12.498 1.225-18.821 1.225zm-92.052-35.75c.033.021.064.045.095.07 2.901 2.451 5.874 4.775 8.835 6.907 10.973 7.913 22.996 14.203 35.737 18.695 1.798.631 3.634 1.235 5.457 1.794 4.785 1.482 9.68 2.706 14.55 3.638 5.182 1.02 10.436 1.745 15.621 2.155.37.037.721.061 1.071.083.203.025.329.034.465.034.721.064 1.347.099 1.973.134 2.782.159 5.557.239 8.248.239 6.236 0 12.481-.407 18.562-1.208 9.737-1.258 19.381-3.549 28.666-6.81 4.807-1.694 9.519-3.639 14.002-5.78l.35-.167c9.39-4.505 18.293-10.062 26.436-16.504 3.495-2.736 6.962-5.744 10.306-8.942 1.081-1.024 2.212-2.139 3.364-3.316 1.13-1.142 2.235-2.313 3.382-3.585 7.687-8.383 14.347-17.657 19.803-27.57 5.746-10.438 10.155-21.563 13.105-33.068 2.954-11.513 4.452-23.449 4.452-35.476-.001-78.536-63.893-142.429-142.428-142.429-67.769 0-126.516 48.171-139.689 114.54-1.818 9.072-2.74 18.455-2.74 27.888 0 18.983 3.677 37.418 10.927 54.792 2.426 5.823 5.281 11.544 8.485 17.007.019.032.036.065.051.099 1.935 3.311 3.999 6.526 6.136 9.558 5.871 8.438 12.692 16.249 20.276 23.222 1.388 1.298 2.859 2.606 4.502 4z" fill="#1d0333"/><path d="m186.878 82.79c3.361 4.954 7.048 12.257 6.026 20.49-.939 7.572-6.288 13.758-10.848 19.284-3.109 3.769-4.214 4.254-7.232 8.437-2.164 3-5.122 7.164-7.232 13.258-1.028 2.968-2.237 7.5-2.411 13.258-2.38-3.903-10.287-17.948-7.232-36.158 4.28-25.494 26.37-37.261 28.929-38.569z" fill="#1d0333"/><path d="m250.24 241.212c-1.109 1.229-2.242 2.435-3.411 3.616-1.109 1.133-2.242 2.254-3.387 3.339-3.315 3.17-6.774 6.183-10.377 9.003-8.196 6.484-17.127 12.065-26.649 16.633-.109.048-.217.108-.325.157-4.568 2.182-9.281 4.122-14.102 5.822-9.232 3.242-18.887 5.568-28.866 6.858-6.123.808-12.354 1.217-18.694 1.217-2.784 0-5.556-.084-8.304-.241-.639-.036-1.278-.072-1.916-.133-.181 0-.35-.012-.53-.036-.361-.024-.723-.048-1.085-.084-5.327-.422-10.582-1.157-15.729-2.169-4.978-.952-9.871-2.182-14.656-3.664-1.844-.566-3.676-1.169-5.496-1.808-.096-1.266-.132-2.567-.12-3.893.096-8.449 2.398-21.9 15.669-38.569 1.952-.603 4.086-1.266 6.4-1.977.94-.301 1.916-.603 2.917-.928.205-.06.422-.12.627-.193.663-.205 1.338-.422 2.025-.639.579-.181 1.157-.362 1.748-.554 2.519-.795 5.195-1.651 8.003-2.567.289-.096.579-.181.868-.277.012-.012.024-.012.036-.012.024-.012.048-.024.072-.036 2.073-.663 4.218-1.362 6.436-2.097 4.845-1.591 10.016-3.327 15.464-5.183 12.957-4.423 20.188-7.087 28.432-9.895 2.447-.832 5.002-1.687 7.81-2.615.157-.048.313-.096.47-.145.241-.084.482-.157.735-.241.024 0 .048-.012.072-.024.337-.109.687-.217 1.049-.338.193-.06.386-.133.591-.193h.012c4.58-1.482 9.944-3.146 16.042-4.93.482-.145.964-.289 1.458-.422h.012c.82-.241 1.651-.482 2.507-.723.048-.024.084-.036.133-.048 6.316-1.796 13.33-3.712 20.972-5.629 1.724-.446 3.483-.88 5.279-1.314 1.902 13.944 4.433 28.986 7.808 44.932z" fill="#b8bfcc"/><path d="m134.412 226.688c.241-.084.494-.181.747-.277-.012.181-.036.362-.048.53-.097 1.073-.181 2.133-.265 3.182-.675 8.172-1.157 15.837-1.482 22.9-.338 7.485-.53 14.319-.615 20.393-.072 4.58-.133 9.232-.157 13.945-5.327-.422-10.582-1.157-15.729-2.169-4.978-.952-9.871-2.182-14.656-3.664-1.844-.566-3.676-1.169-5.496-1.808-12.957-4.568-25.058-10.944-35.989-18.826 5.629-9.1 15.427-12.342 20.2-13.993 8.34-2.868 21.526-8.027 38.581-14.548v-.012c1.904-.723 3.869-1.47 5.87-2.23.036-.012.084-.036.133-.048.169-.072.349-.133.53-.205.048-.012.084-.024.133-.048 2.663-1.012 5.411-2.049 8.243-3.122z" fill="#cc9af0"/><path d="m123.107 207.124c6.182-5.66 17.452-14.472 33.748-19.284 3.632-1.072 32.546-9.611 39.774 1.205 1.215 1.817 3.696 6.993-6.026 26.516-8.418 16.904-26.123 52.456-43.39 49.416-13.152-2.316-23.801-26.626-24.106-57.853z" fill="#1d0333"/><path d="m196.629 189.044c.609 1.423 1.698 4.514 1.205 8.437-.667 5.3-3.783 8.623-4.821 9.642 1.377 1.314 3.851 3.215 7.232 3.616 5.997.712 12.431-3.581 15.669-10.848-6.429-3.615-12.856-7.231-19.285-10.847z" fill="#cc9af0"/><path d="m123.107 211.945c-1.205 6.83-2.411 13.66-3.616 20.49 4.419 2.812 8.839 5.625 13.258 8.437.803-6.83 1.607-13.66 2.411-20.49-1.81-.54-4.478-1.573-7.232-3.616-2.247-1.667-3.804-3.453-4.821-4.821z" fill="#cc9af0"/><path d="m207.79 226.351c8.425 10.269 16.85 20.538 25.275 30.819-8.196 6.484-17.127 12.065-26.649 16.633-.109.048-.217.108-.325.157-4.568 2.182-9.281 4.122-14.102 5.822-9.232 3.242-18.887 5.568-28.866 6.858-6.123.808-12.354 1.217-18.694 1.217-2.784 0-5.556-.084-8.304-.241-.639-.036-1.278-.072-1.916-.133-.181 0-.35-.012-.53-.036-.361-.024-.723-.048-1.085-.084-5.327-.422-10.582-1.157-15.729-2.169-.771-10.944-.446-28.384 6.581-49.368.072-.241.157-.482.241-.723.169-.53.361-1.049.542-1.579.374-1.061.771-2.133 1.181-3.218.036-.084.06-.157.097-.241 0-.012.012-.024.012-.036.169-.06.349-.108.518-.169.048-.012.084-.024.133-.048 2.736-.868 5.46-1.748 8.196-2.627.253-.084.494-.157.747-.241h.012c.024-.012.036-.012.06-.024 1.615-.518 3.242-1.037 4.857-1.555 14.801-4.761 29.614-9.522 44.414-14.283 2.857-.916 5.701-1.832 8.558-2.748.133.169.277.338.41.506.072.084.133.157.205.241.217.277.446.542.675.82.024.036.06.072.084.108 4.471 5.446 8.93 10.894 13.402 16.342z" fill="#fff"/><path d="m144.429 288.856c-2.729 0-5.542-.082-8.361-.242-.651-.037-1.303-.074-1.954-.136-.133.004-.343-.01-.569-.041-.306-.018-.678-.043-1.051-.081-5.241-.415-10.571-1.15-15.823-2.184-.442-.087-.772-.46-.804-.911-1.158-16.42 1.073-33.16 6.63-49.756.067-.226.156-.482.246-.738.101-.316.22-.655.339-.996l.2-.573c.38-1.078.779-2.158 1.192-3.249l.091-.225c.092-.293.317-.534.618-.641.097-.034.197-.066.298-.097l.221-.071c.047-.023.115-.043.164-.059 2.187-.693 4.365-1.395 6.548-2.097l2.382-.767c.013-.004.025-.008.038-.012.015-.006.03-.011.045-.016l57.829-18.585c.399-.128.831.005 1.091.333l.59.716c.174.22.325.401.479.583l.207.249c.047.059.08.101.105.135l13.385 16.32c8.425 10.269 16.85 20.539 25.274 30.82.17.208.25.475.221.741-.028.267-.163.51-.374.677-8.258 6.534-17.287 12.169-26.836 16.75l-.146.07c-.069.035-.14.069-.209.1-4.521 2.159-9.298 4.132-14.174 5.85-9.417 3.307-19.197 5.63-29.07 6.906-6.165.815-12.499 1.227-18.822 1.227zm-26.62-4.498c4.932.942 9.928 1.617 14.862 2.007.37.037.721.061 1.071.083.203.025.329.034.465.034.721.064 1.347.099 1.973.134 2.782.159 5.557.239 8.248.239 6.236 0 12.481-.407 18.562-1.208 9.737-1.258 19.381-3.549 28.666-6.81 4.807-1.694 9.519-3.639 14.002-5.78l.35-.167c9.083-4.358 17.711-9.7 25.635-15.875-8.208-10.017-16.418-20.023-24.627-30.029l-13.403-16.343c-.023-.029-.045-.059-.065-.09-.01-.005-.044-.049-.073-.093l-.143-.162c-.167-.2-.333-.398-.492-.602l-.173-.202-57.147 18.366c-.001 0-.002 0-.003.001-.056.024-.113.042-.172.056l-2.319.747c-2.167.697-4.328 1.393-6.497 2.081-.078.034-.157.06-.246.083-.001.001-.002.002-.005.003-.375.996-.752 2.016-1.107 3.024l-.203.582c-.113.322-.226.643-.329.968-.09.255-.169.481-.236.707-5.397 16.117-7.611 32.334-6.594 48.246z" fill="#1d0333"/><path d="m135.159 221.382c-.136 0-.274-.028-.406-.087-8.481-3.787-12.617-7.631-12.646-11.753-.057-8.225 16.677-16.207 31.024-20.543 18.229-5.508 39.005-7.428 44.333.703 2.627 4.007 1.421 10.443-3.585 19.127-.275.478-.886.643-1.365.367s-.644-.887-.367-1.366c4.598-7.977 5.824-13.707 3.646-17.031-4.526-6.906-24.598-5.17-42.083.115-17.469 5.28-29.642 12.934-29.603 18.615.021 3.166 3.984 6.603 11.46 9.941.505.225.731.816.506 1.321-.166.37-.531.591-.914.591z" fill="#1d0333"/><path d="m186.987 221.59c-1.061 9.401-9.775 14.994-10.848 15.669-8.642 5.376-19.369 4.194-26.516 0-6.075-3.568-8.533-9.413-13.788-20.948-5.243-11.51-7.642-21.828-9.57-31.181-.265-1.278-.53-2.543-.783-3.785v-.012c-1.049-5.086-1.808-9.751-2.386-13.909-.193-1.35-.35-2.627-.506-3.857-.012-.024-.012-.048-.012-.072-.398-3.218-.699-6.038-.928-8.425-.603-5.882-.88-10.775-1.024-14.102 13.354-7.015 26.733-14.042 40.1-21.056.133 1.989.265 3.977.386 5.954.096 1.193.41 5.942.41 5.954 1.76 26.275 10.221 50.345 10.221 50.345 2.182 5.834 4.905 12.499 8.304 19.742 5.156 11.041 7.554 14.199 6.94 19.683z" fill="#ffb5a6"/><path d="m177.103 108.342c-1.057 3.724-5.884 10.438-15.536 23.865-9.154 12.734-13.732 19.101-16.874 21.695-13.577 11.206-35.439 16.676-50.622 8.437-1.899-1.03-6.278-3.475-9.642-8.437-5.05-7.449-5.375-16.85-3.399-26.54.964-4.749 2.471-9.558 4.243-14.234 2.965-7.858 6.665-15.355 9.727-21.574 3.712-7.545 9.522-17.886 18.356-29.252 1.687 5.074 22.961-8.883 36.821-5.918 22.944 4.907 31.787 34.84 26.926 51.958z" fill="#ffb5a6"/><path d="m149.514 151.491c-.976 2.748-2.374 5.026-5.135 9.461-3.773 6.063-6.4 9.425-8.485 11.944-.35.41-.675.783-1.037 1.181-3.507 3.881-5.918 5.725-8.774 7.003-.205.096-.41.181-.603.253-1.049-5.086-1.808-9.751-2.386-13.909-.193-1.35-.35-2.627-.506-3.857 3.435-1.181 8.051-3.158 12.896-6.521 9.052-6.267 13.704-13.74 15.235-12.788 1.122.7-.518 5.293-1.205 7.233z" fill="#1d0333"/><path d="m171.294 113.428c-3.965-1.049-6.376-5.231-8.521-8.943-5.038-8.738-4.086-17.464-3.616-20.49-5.593 1.567-13.909 3.375-24.106 3.616-11.522.277-24.25.579-36.158-7.232-3.821-2.507-11.498-8.437-16.874-20.49 1.049.422 2.724 1 4.821 1.205 5.508.542 10.088-1.784 14.331-5.122 3.857-3.025 7.437-6.894 11.185-10.185 1.121-.988 2.254-1.928 3.411-2.772 18.923-13.825 53.466-10.763 66.29 6.026 2.507 3.29 6.328 9.907 6.026 21.695 4.773.591 9.956 2.109 12.053 6.026 6.183 11.524-16.464 39.933-28.842 36.666z" fill="#1d0333"/><path d="m135.835 66.242c.205-3.483-.048-8.184-3.013-10.341-3.953-2.881-9.895.808-16.283 1.928-3.893.687-8.967.603-15.367-1.856 3.857-3.025 7.437-6.894 11.185-10.185.795.808 1.591 1.422 2.35 1.904 8.232 5.207 18.694-1.061 23.72 4.327 2.314 2.495 2.35 6.243 2.037 8.943 5.207.542 10.426 1.085 15.633 1.627-6.751 1.218-13.513 2.435-20.262 3.653z" fill="#eedcff"/><path d="m270.175 213.454c-5.532 10.052-12.234 19.357-19.935 27.758-1.109 1.229-2.242 2.435-3.411 3.616-1.109 1.133-2.242 2.254-3.387 3.339-3.315 3.17-6.774 6.183-10.377 9.003-8.196 6.484-17.127 12.065-26.649 16.633-6.954-24.72-10.329-46.62-12.029-63.795-.012-.048-.012-.084-.012-.133-.06-.518-.109-1.037-.157-1.543.048-.024.096-.036.145-.06h.012c7.087-2.591 14.162-5.183 21.249-7.75l.012-.012c.109-.048.205-.084.313-.12h.012.012c3.773-1.386 7.533-2.76 11.306-4.134 9.871-3.616 19.742-7.22 29.614-10.823.241.482.47.976.711 1.458 4.194 8.617 8.401 17.476 12.571 26.563z" fill="#cc9af0"/><path d="m283.373 180.153c-3.013 11.751-7.485 22.924-13.198 33.302-5.532 10.052-12.234 19.357-19.935 27.758-1.109 1.229-2.242 2.435-3.411 3.616-1.109 1.133-2.242 2.254-3.387 3.339-14.391-11.884-25.672-21.526-31.964-27.275-3.339-3.037-5.267-4.978-5.52-5.58-.711-1.675-.892-3.363-.892-3.363-.072-.627-.072-1.193-.048-1.651 0-.301.024-.554.048-.759-.735 0-1.205 0-1.205 0s3.049-2.085 8.208-5.122c.627-.374 1.29-.747 1.977-1.157h.012c.639-.362 1.29-.735 1.977-1.121.024-.012.06-.036.096-.048 1.229-.699 2.531-1.41 3.905-2.145 2.242-1.193 4.664-2.447 7.244-3.688 8.702-4.231 19.092-8.545 29.855-11.342 2.736-.711 5.508-1.338 8.148-1.868h.012c7.907-1.615 14.5-2.435 14.5-2.435 1.312-.172 2.493-.329 3.578-.461z" fill="#cc9af0"/><path d="m110.958 133.08c3.315-1.025 5.158-2.487 6.366-1.591.864.64.809 2.045.796 2.387-.142 3.629-4.994 8.114-9.549 7.162-3.579-.749-6.348-4.725-5.57-6.366.622-1.313 3.004-.06 7.957-1.592z" fill="#fff"/><path d="m121.127 111.556c-.043.955.64 1.682 1.085 2.17 2.344 2.539 5.49 1.324 10.838 1.736 1.009.076 2.093.206 3.265.434 4.567.89 7.008 2.517 8.679 1.085 1.139-.976 1.095-2.69 1.085-2.853-.163-3.873-6.347-7.507-11.934-7.996-1.118-.098-2.267-.076-3.396.043-4.958.532-9.525 2.973-9.622 5.381z" fill="#fff"/><path d="m121.127 111.556c-.043.955.64 1.682 1.085 2.17 2.344 2.539 5.49 1.324 10.838 1.736 1.15-2.408.987-5.956-1.074-8.245-.38-.423-.792-.77-1.226-1.041-4.959.531-9.526 2.972-9.623 5.38z" fill="#1d0333"/><path d="m89.791 106.788c-.035.754.516 1.328.875 1.714 1.891 2.005 4.429 1.046 8.744 1.371.814.06 1.689.163 2.634.343 3.685.703 5.654 1.988 7.002.857.919-.771.884-2.125.875-2.254-.131-3.06-5.12-5.931-9.627-6.316-.902-.077-1.829-.06-2.739.034-4.001.42-7.685 2.348-7.764 4.251z" fill="#fff"/><path d="m89.791 106.788c-.035.754.516 1.328.875 1.714 1.891 2.005 4.429 1.046 8.744 1.371.927-1.903.796-4.705-.867-6.513-.306-.334-.639-.608-.989-.823-4 .42-7.684 2.348-7.763 4.251z" fill="#1d0333"/><path d="m111.781 108.646c-2.497 3.712-5.419 7.159-8.587 10.317-.78.793-1.584 1.574-2.277 2.365-.332.383-.655.822-.73 1.096-.046.144-.012.144-.003.18.015.03.1.114.261.193.7.328 1.835.415 2.871.426 1.064.008 2.149-.057 3.234-.15h.006c.55-.047 1.035.361 1.082.911s-.361 1.035-.911 1.082c-.014.001-.031.002-.044.003-1.133.047-2.271.068-3.43.009-.581-.035-1.163-.08-1.763-.186-.6-.111-1.211-.238-1.872-.597-.321-.185-.697-.463-.929-.936-.121-.228-.157-.5-.183-.754.017-.238.04-.505.122-.683.3-.779.733-1.195 1.127-1.643.811-.846 1.639-1.578 2.451-2.337 3.262-2.982 6.262-6.223 8.889-9.782.138-.187.401-.226.588-.089.181.135.222.389.098.575z" fill="#1d0333"/><path d="m133.677 287.447c-.361-.024-.723-.048-1.085-.084-5.327-.422-10.582-1.157-15.729-2.169-4.978-.952-9.871-2.182-14.656-3.664 1.639-19.646 6.496-36.351 16.452-46.247.627-.639 1.278-1.229 1.94-1.796.084-.072.157-.133.229-.193 1.422-1.193 2.413-6.743 4.028-7.671.048-.024 1.952-1.976 2-2 2.652-1.519 8-1 7.58 2.958-.026.247.482-.12.723-.169-.012.181-.024.35-.036.53-.084 1.025-.157 2.085-.241 3.17-.482 6.846-.928 14.789-1.217 23.407-.349 10.545-.434 22.104.012 33.928z" fill="#cc9af0"/><g fill="#1d0333"><path d="m197.836 235.845c-.344 0-.678-.177-.864-.495-.278-.477-.118-1.089.358-1.368 3.734-2.185 9.004-6.196 12.898-12.897 4.723-8.129 5.031-16.189 4.729-20.58l-21.225-11.792c-.483-.268-.657-.877-.389-1.36.268-.482.877-.657 1.359-.388l21.695 12.053c.291.162.483.458.511.79.381 4.483.242 13.34-4.953 22.282-4.112 7.078-9.675 11.312-13.617 13.619-.156.092-.33.136-.502.136z"/><path d="m133.956 241.872c-.086 0-.173-.011-.259-.034-1.265-.338-2.521-.756-3.731-1.244-4.133-1.664-7.895-4.171-11.181-7.452-.228-.226-.332-.547-.281-.864l3.616-22.899c.085-.545.6-.916 1.144-.832.545.086.918.598.831 1.144l-3.535 22.392c3.008 2.916 6.421 5.154 10.152 6.656 1.137.458 2.314.85 3.501 1.167.534.143.851.691.708 1.224-.119.446-.524.741-.965.742z"/><path d="m206.09 274.96c-.435 0-.835-.286-.961-.724-5.987-20.811-10.212-42.34-12.556-63.989-.033-.23-.06-.495-.084-.748l-.134-1.295c-.056-.55.345-1.04.895-1.096.56-.054 1.04.346 1.096.894l.072.74c.011.069.021.176.031.285l.026.241c.025.262.048.497.082.731 2.336 21.569 6.537 42.984 12.493 63.685.152.531-.153 1.084-.685 1.237-.091.026-.184.039-.275.039z"/><path d="m212.298 221.587c6.078-8.47 12.293-14.317 16.874-18.079 2.173-1.785 6.205-5.067 12.053-8.437 3.679-2.12 5.917-3.03 14.463-7.232 4.113-2.022 7.459-3.71 9.642-4.821-7.103 1.213-15.265 3.089-24.106 6.026-9.912 3.294-18.377 7.159-25.311 10.848.32 2.53.484 5.835 0 9.642-.661 5.205-2.274 9.314-3.615 12.053z"/><path d="m95.602 90.359c.723-.229 1.338.012 5.665.133 3.363.096 5.363.012 7.232 1.205.386.253.856.615 1.205 1.205.675 1.181.771 3.001 0 3.616-1.097.88-2.953-1.495-7.232-2.411-2.953-.627-5.58-.241-7.232 0-.579.084-1.121.193-1.639.289z"/><path d="m125.371 98.934c.693 1.879 4.504.397 10.848 2.411 1.575.5 7.32 2.323 12.053 7.232 1.832 1.9 3.144 3.88 3.616 3.616.627-.351-.969-4.244-1.205-4.821-1.224-2.986-1.92-4.683-3.616-6.026-1.518-1.202-1.984-.652-6.026-2.411-1.984-.863-1.875-.997-4.821-2.411-5.702-2.736-6.754-2.543-7.232-2.411-2.222.614-4.186 3.276-3.617 4.821z"/><path d="m134.206 288.483c-.533 0-.977-.422-.998-.96-.132-3.285-.205-5.99-.254-8.055-.199-8.306-.207-16.894-.023-25.525.176-7.924.521-15.976 1.026-23.931.073-1.081.146-2.134.229-3.175.096-1.483.205-2.933.313-4.347.042-.55.518-.965 1.073-.92.551.042.963.523.921 1.074-.108 1.406-.216 2.849-.312 4.339-.085 1.048-.157 2.092-.229 3.161-.504 7.924-.848 15.947-1.022 23.843-.184 8.601-.176 17.158.023 25.434.049 2.057.12 4.751.252 8.023.022.552-.407 1.017-.959 1.039-.013-.001-.026 0-.04 0z"/></g><ellipse cx="134.448" cy="129.193" fill="#f99282" rx="10.245" ry="6.629"/><path d="m93.312 119.937c0 3.893-5.412 7.099-12.282 7.424.964-4.749 2.471-9.558 4.243-14.234 4.737 1.145 8.039 3.761 8.039 6.81z" fill="#f99282"/><path d="m173.62 117.743c-2.785 1.321-7.614 4.156-10.848 9.642-5.124 8.692-4.096 20.397 2.411 30.132-.072-1.946-.076-3.956 0-6.026.497-13.471 4.261-24.908 8.437-33.748z" fill="#1d0333"/><path d="m161.567 104.485c4.112-2.575 10.401-5.963 18.626-8.338 7.529-2.174 14.821-4.285 18.062-.787 2.857 3.084 1.56 9.38-.627 13.298-6.236 11.17-26.42 15.439-33.453 7.49-1.058-1.195-3.44-4.5-2.608-11.663z" fill="#ffb5a6"/><path d="m177.907 114.175c-.21 0-.422-.004-.634-.014-.552-.023-.98-.49-.957-1.042s.532-.968 1.041-.957c3.174.125 5.46-.891 6.537-1.894.425-.396.685-.813.692-1.115.03-1.046-2.42-3.16-6.512-3.477-.392-.03-.729-.288-.863-.657s-.038-.783.244-1.057c1.337-1.298 5-4.315 10.149-4.315h.024c1.784.003 3.551.363 5.251 1.071.511.212.752.797.539 1.308-.211.511-.801.75-1.307.539-1.457-.606-2.967-.915-4.487-.917-.007 0-.014 0-.021 0-3.044 0-5.499 1.245-7.111 2.388 3.785.906 6.148 3.193 6.093 5.174-.024.862-.484 1.734-1.329 2.521-1.659 1.55-4.373 2.444-7.349 2.444z" fill="#1d0333"/><path d="m144.429 288.856c-2.729 0-5.542-.082-8.361-.242-.651-.037-1.303-.074-1.954-.136-.133.004-.343-.01-.569-.041-.306-.018-.678-.043-1.051-.081-5.241-.415-10.571-1.15-15.823-2.184-4.938-.944-9.905-2.186-14.759-3.69-1.846-.567-3.707-1.179-5.531-1.819-12.922-4.557-25.115-10.935-36.243-18.959-2.973-2.142-5.957-4.473-8.871-6.931-.034-.022-.066-.046-.098-.072-1.702-1.442-3.224-2.793-4.653-4.131-7.685-7.066-14.603-14.989-20.555-23.541-2.185-3.099-4.297-6.392-6.274-9.782-.018-.031-.034-.062-.048-.095-3.23-5.514-6.109-11.289-8.557-17.164-7.354-17.616-11.082-36.31-11.082-55.56 0-9.565.936-19.08 2.779-28.28 13.357-67.3 72.93-116.148 141.65-116.148 79.638 0 144.428 64.79 144.428 144.428 0 12.194-1.519 24.297-4.515 35.973-2.992 11.668-7.464 22.951-13.291 33.536-5.532 10.052-12.286 19.457-20.074 27.951-1.146 1.271-2.305 2.499-3.437 3.644-1.166 1.191-2.315 2.323-3.411 3.361-3.388 3.24-6.904 6.292-10.448 9.065-8.254 6.53-17.283 12.166-26.832 16.747l-.146.07c-.069.035-.14.069-.209.1-4.521 2.159-9.298 4.132-14.174 5.85-9.417 3.307-19.197 5.63-29.07 6.906-6.164.813-12.498 1.225-18.821 1.225zm-92.052-35.75c.033.021.064.045.095.07 2.901 2.451 5.874 4.775 8.835 6.907 10.973 7.913 22.996 14.203 35.737 18.695 1.798.631 3.634 1.235 5.457 1.794 4.785 1.482 9.68 2.706 14.55 3.638 5.182 1.02 10.436 1.745 15.621 2.155.37.037.721.061 1.071.083.203.025.329.034.465.034.721.064 1.347.099 1.973.134 2.782.159 5.557.239 8.248.239 6.236 0 12.481-.407 18.562-1.208 9.737-1.258 19.381-3.549 28.666-6.81 4.807-1.694 9.519-3.639 14.002-5.78l.35-.167c9.39-4.505 18.293-10.062 26.436-16.504 3.495-2.736 6.962-5.744 10.306-8.942 1.081-1.024 2.212-2.139 3.364-3.316 1.13-1.142 2.235-2.313 3.382-3.585 7.687-8.383 14.347-17.657 19.803-27.57 5.746-10.438 10.155-21.563 13.105-33.068 2.954-11.513 4.452-23.449 4.452-35.476-.001-78.536-63.893-142.429-142.428-142.429-67.769 0-126.516 48.171-139.689 114.54-1.818 9.072-2.74 18.455-2.74 27.888 0 18.983 3.677 37.418 10.927 54.792 2.426 5.823 5.281 11.544 8.485 17.007.019.032.036.065.051.099 1.935 3.311 3.999 6.526 6.136 9.558 5.871 8.438 12.692 16.249 20.276 23.222 1.388 1.298 2.859 2.606 4.502 4z" fill="#1d0333"/></svg>